<?xml version="1.0" encoding="UTF-8"?>
<svg width="720" height="220" viewBox="0 0 720 220" fill="none" xmlns="http://www.w3.org/2000/svg">
  <defs>
    <linearGradient id="sfBlue" x1="0" y1="0" x2="0" y2="1">
      <stop offset="0%" stop-color="#3B82F6"/>
      <stop offset="100%" stop-color="#2563EB"/>
    </linearGradient>
  </defs>
  <!-- Icon: three bars with an upward arrow forming the last bar -->
  <g transform="translate(24,38)">
    <!-- bars -->
    <rect x="0"   y="92" width="22" height="38" rx="6" fill="url(#sfBlue)"/>
    <rect x="32"  y="68" width="22" height="62" rx="6" fill="url(#sfBlue)"/>
    <rect x="64"  y="44" width="22" height="86" rx="6" fill="url(#sfBlue)"/>
    <!-- arrow-shaped growth bar -->
    <path d="M118 18c6-6 16-6 22 0l16 16c3 3 1 8-3 8h-18v88c0 6-5 11-11 11h-18c-6 0-11-5-11-11V46h-10c-4 0-6-5-3-8l36-20z"
          fill="url(#sfBlue)"/>
  </g>

  <!-- Wordmark -->
  <text x="196" y="120" font-family="Inter, Segoe UI, Roboto, Arial, sans-serif"
        font-size="64" font-weight="700" fill="#111827" letter-spacing="0.5">
    StoxFlow
  </text>
</svg>
